<svg xmlns="http://www.w3.org/2000/svg" xmlns:xlink="http://www.w3.org/1999/xlink" id="Layer_1" x="0" y="0" version="1.1" viewBox="0 0 40.184 40.964" xml:space="preserve" style="enable-background:new 0 0 40.1843605 40.9644279"><style type="text/css">.st0{fill:#fff}.st15{fill:#d1d2d9}</style><g><g><rect width="3.013" height="8.394" x="12.748" y="3.018" class="st15"/><path d="M9.9391098,0v25.2154236c0,1.2910461,1.0465832,2.3376751,2.3376303,2.3376751h15.6582556 c1.2759304,0,2.3102551-1.0343723,2.3102551-2.3102551V0H9.9391098z M15.7609625,24.5482674h-3.0130472V3.0176775h3.0130472 V24.5482674z M27.4364452,24.5482674h-8.9530678v-3.0130005h8.9530678V24.5482674z" class="st0"/></g><g><path d="M7.1411777,31.4273891c-0.2532797,0-0.4730611,0.0937939-0.6531348,0.2784424 c-0.1786027,0.1830158-0.2691298,0.4019794-0.2691298,0.6500301s0.0905271,0.4666901,0.2689667,0.649704 c0.1797466,0.1846504,0.4014888,0.2784424,0.6591806,0.2784424c0.2568746,0,0.4781265-0.0911789,0.6575465-0.2709274 c0.1795831-0.1794205,0.2706008-0.4006691,0.2706008-0.6572189c0-0.2568741-0.0910177-0.4781265-0.2706008-0.6575451 C7.6251869,31.518568,7.4019737,31.4273891,7.1411777,31.4273891z" class="st0"/><path d="M32.5318871,36.4717369c0,0.8441582-0.0364418,1.4101944-0.1082573,1.6824303 c-0.0696945,0.2643929-0.1987839,0.5179977-0.3835983,0.754612c-0.1835041,0.235302-0.4067974,0.4215851-0.6635094,0.5536194 c-0.5121956,0.2634087-1.0954742,0.2346497-1.4567661,0.0787621c-0.1776218-0.0768013-0.3197861-0.1902046-0.4345779-0.3467484 c-0.1187973-0.1617737-0.2105503-0.3647232-0.2727261-0.6026421c-0.0638905-0.2441292-0.0963268-0.7238884-0.0963268-1.4252281 v-3.282505h-1.3171368v3.5220566c0,0.919323,0.0986977,1.5863495,0.3023014,2.0399628 c0.204422,0.4555779,0.5158749,0.8186646,0.9254513,1.0788078c0.4089241,0.2601433,0.8704643,0.3918495,1.3718777,0.3918495 c0.8021603,0,1.5179615-0.3003426,2.1332684-0.8935051v0.7255211h1.3291435V33.884037h-1.3291435V36.4717369z" class="st0"/><path d="M23.0535088,33.7160568c-0.4831905,0-0.9471016,0.1287613-1.3789845,0.3826942 c-0.3464203,0.2036057-0.6490498,0.4840126-0.9029827,0.8353348c-0.1741905-0.3418465-0.4209347-0.6186562-0.7356548-0.8252029 c-0.3975658-0.2607956-0.8457909-0.3928261-1.3319225-0.3928261c-0.7451324,0-1.3923855,0.2728882-1.9296646,0.8121262v-0.644146 h-1.3170538v6.8646927h1.3170538v-2.9471931c0-0.7961159,0.0722256-1.3686905,0.2143898-1.7017097 c0.138567-0.3245277,0.3547535-0.5905533,0.6426754-0.7908859c0.2853069-0.1987038,0.5897331-0.2996902,0.9047813-0.2996902 c0.3157005,0,0.5676727,0.0784378,0.7709503,0.2395554c0.2029495,0.1611176,0.3307343,0.3621063,0.390213,0.6144066 c0.0647087,0.2735405,0.0973911,0.7363091,0.0973911,1.3752251v3.5102921h1.3052883v-2.7432632 c0-0.7863083,0.0619297-1.3843765,0.1841583-1.7778587c0.117979-0.3794289,0.3214207-0.6709442,0.6220875-0.8912163 c0.2967453-0.2170029,0.6162052-0.3271408,0.9495525-0.3271408c0.3312244,0,0.5985584,0.0787621,0.7949715,0.2336731 c0.2000103,0.1578484,0.3259964,0.3460922,0.384985,0.5755157c0.0640564,0.248703,0.0965729,0.6539536,0.0965729,1.2043037 v3.7259865h1.3410759v-3.7259865c0-1.2722816-0.2315464-2.1223183-0.7078762-2.598484 C24.295887,33.9542999,23.719717,33.7160568,23.0535088,33.7160568z" class="st0"/><path d="M38.5045471,36.712925c-0.4648933-0.2441292-0.7896614-0.4493675-0.9653244-0.6104851 c-0.1529465-0.1398773-0.2272987-0.2954369-0.2272987-0.4755135c0-0.1807251,0.0648727-0.3287735,0.1982117-0.4526329 c0.3667679-0.340538,0.9922867-0.2248497,1.6891327,0.4251823l0.12043,0.1124229l0.8646622-0.8974266l-0.1190414-0.1163445 c-0.6683311-0.6516647-1.3184433-0.9820709-1.9321938-0.9820709c-0.61343,0-1.1161461,0.1849747-1.4941864,0.5503502 c-0.3796768,0.366684-0.5722504,0.8163795-0.5722504,1.336338c0,0.5134201,0.1360359,0.9366417,0.4044304,1.2575722 c0.2573662,0.3081856,0.6380997,0.5902252,1.1313438,0.8389282c0.4598236,0.2320366,0.7857361,0.4349861,0.9687538,0.6029701 c0.1610374,0.1480446,0.2393875,0.327137,0.2393875,0.5477371c0,0.2209244-0.0883179,0.4101486-0.2698631,0.5781288 c-0.1854668,0.1719055-0.4030418,0.2552414-0.665226,0.2552414c-0.3941383,0-0.7948074-0.2343254-1.1909866-0.6964378 l-0.1242714-0.1451035l-0.8442383,0.9418716l0.0868492,0.1104622c0.558033,0.7101631,1.2674599,1.0703125,2.1085968,1.0703125 c0.6104012,0,1.1318321-0.2098122,1.5495796-0.623558c0.4185638-0.4140701,0.6308289-0.9297829,0.6308289-1.5327492 c0-0.4784546-0.1445312-0.8899117-0.4296761-1.223259C39.389637,37.2665443,39.0001564,36.9730682,38.5045471,36.712925z" class="st0"/><polygon points="1.377 31.427 0 31.427 0 40.749 4.684 40.749 4.684 39.42 1.377 39.42" class="st0"/><rect width="1.329" height="6.865" x="6.482" y="33.884" class="st0"/><path d="M12.2450066,31.4273891h-1.3291454v2.4566479H9.7896652v1.197113h1.1261959v4.5417137 c0,0.4506721,0.1088285,0.7905579,0.3235435,1.0098495c0.2153692,0.2202721,0.5418549,0.3317146,0.9703064,0.3317146 c0.2091599,0,0.5127687-0.0330086,0.9020023-0.0980453l0.1398754-0.023201v-1.1598587h-0.7425175 c-0.1679821,0-0.2351418-0.0169945-0.2455997-0.0107841c-0.0060463-0.0173225-0.018465-0.0669975-0.018465-0.1813812v-4.4100075 h1.2941771v-1.197113h-1.2941771V31.4273891z" class="st0"/></g></g></svg>