<svg xmlns="http://www.w3.org/2000/svg" xmlns:xlink="http://www.w3.org/1999/xlink" width="1349.333" height="862.4" font-family="Consolas, Menlo, 'Bitstream Vera Sans Mono', monospace, 'Powerline Symbols'" font-size="14"><style>.default-text-fill{fill:#ccc}.default-bg-fill{fill:#121314}.c-0{fill:#000}.c-2{fill:#4ebf22}.c-7{fill:#d9d9d9}.c-10{fill:#4ebf22}.br,.c-10{font-weight:700}</style><rect width="100%" height="100%" class="default-bg-fill"/><svg x=".625%" y="1.136%" class="default-text-fill"><g style="shape-rendering:optimizeSpeed"><rect width=".625%" height="19.7" x="5.625%" y="6.818%" class="c-7"/><rect width="98.75%" height="19.7" x="0%" y="95.455%" class="c-2"/></g><text class="default-text-fill"><tspan y="0%"><tspan x="0%" dy="1em">c</tspan><tspan x=".625%">h</tspan><tspan x="1.25%">a</tspan><tspan x="1.875%">o</tspan><tspan x="2.5%">s</tspan><tspan x="3.125%">:</tspan><tspan x="3.75%">~</tspan><tspan x="4.375%">$</tspan><tspan x="5.625%">#</tspan><tspan x="6.875%">B</tspan><tspan x="7.5%">u</tspan><tspan x="8.125%">i</tspan><tspan x="8.75%">l</tspan><tspan x="9.375%">d</tspan><tspan x="10.625%">a</tspan><tspan x="11.25%">n</tspan><tspan x="11.875%">d</tspan><tspan x="13.125%">a</tspan><tspan x="13.75%">p</tspan><tspan x="14.375%">p</tspan><tspan x="15%">l</tspan><tspan x="15.625%">y</tspan><tspan x="16.875%">C</tspan><tspan x="17.5%">h</tspan><tspan x="18.125%">a</tspan><tspan x="18.75%">o</tspan><tspan x="19.375%">s</tspan><tspan x="20%">E</tspan><tspan x="20.625%">n</tspan><tspan x="21.25%">g</tspan><tspan x="21.875%">i</tspan><tspan x="22.5%">n</tspan><tspan x="23.125%">e</tspan><tspan x="24.375%">C</tspan><tspan x="25%">R</tspan><tspan x="26.25%">t</tspan><tspan x="26.875%">o</tspan><tspan x="28.125%">u</tspan><tspan x="28.75%">n</tspan><tspan x="29.375%">l</tspan><tspan x="30%">e</tspan><tspan x="30.625%">a</tspan><tspan x="31.25%">s</tspan><tspan x="31.875%">h</tspan><tspan x="33.125%">C</tspan><tspan x="33.75%">h</tspan><tspan x="34.375%">a</tspan><tspan x="35%">o</tspan><tspan x="35.625%">s</tspan><tspan x="49.375%" class="c-2">│</tspan><tspan x="50%">E</tspan><tspan x="50.625%">v</tspan><tspan x="51.25%">e</tspan><tspan x="51.875%">r</tspan><tspan x="52.5%">y</tspan><tspan x="53.75%">1</tspan><tspan x="54.375%">.</tspan><tspan x="55%">0</tspan><tspan x="55.625%">s</tspan><tspan x="56.25%">:</tspan><tspan x="57.5%">k</tspan><tspan x="58.125%">u</tspan><tspan x="58.75%">b</tspan><tspan x="59.375%">e</tspan><tspan x="60%">c</tspan><tspan x="60.625%">t</tspan><tspan x="61.25%">l</tspan><tspan x="62.5%">g</tspan><tspan x="63.125%">e</tspan><tspan x="63.75%">t</tspan><tspan x="65%">p</tspan><tspan x="65.625%">o</tspan><tspan x="83.75%">F</tspan><tspan x="84.375%">r</tspan><tspan x="85%">i</tspan><tspan x="86.25%">O</tspan><tspan x="86.875%">c</tspan><tspan x="87.5%">t</tspan><tspan x="89.375%">4</tspan><tspan x="90.625%">1</tspan><tspan x="91.25%">9</tspan><tspan x="91.875%">:</tspan><tspan x="92.5%">3</tspan><tspan x="93.125%">2</tspan><tspan x="93.75%">:</tspan><tspan x="94.375%">3</tspan><tspan x="95%">5</tspan><tspan x="96.25%">2</tspan><tspan x="96.875%">0</tspan><tspan x="97.5%">1</tspan><tspan x="98.125%">9</tspan> </tspan> <tspan y="2.273%"> <tspan x="0%" dy="1em">c</tspan><tspan x=".625%">h</tspan><tspan x="1.25%">a</tspan><tspan x="1.875%">o</tspan><tspan x="2.5%">s</tspan><tspan x="3.125%">:</tspan><tspan x="3.75%">~</tspan><tspan x="4.375%">$</tspan><tspan x="49.375%" class="c-2">│</tspan> </tspan> <tspan y="4.545%"> <tspan x="0%" dy="1em">c</tspan><tspan x=".625%">h</tspan><tspan x="1.25%">a</tspan><tspan x="1.875%">o</tspan><tspan x="2.5%">s</tspan><tspan x="3.125%">:</tspan><tspan x="3.75%">~</tspan><tspan x="4.375%">$</tspan><tspan x="5.625%">v</tspan><tspan x="6.25%">i</tspan><tspan x="7.5%">c</tspan><tspan x="8.125%">h</tspan><tspan x="8.75%">a</tspan><tspan x="9.375%">o</tspan><tspan x="10%">s</tspan><tspan x="10.625%">e</tspan><tspan x="11.25%">n</tspan><tspan x="11.875%">g</tspan><tspan x="12.5%">i</tspan><tspan x="13.125%">n</tspan><tspan x="13.75%">e</tspan><tspan x="14.375%">.</tspan><tspan x="15%">y</tspan><tspan x="15.625%">a</tspan><tspan x="16.25%">m</tspan><tspan x="16.875%">l</tspan><tspan x="49.375%" class="c-2">│</tspan><tspan x="50%">N</tspan><tspan x="50.625%">A</tspan><tspan x="51.25%">M</tspan><tspan x="51.875%">E</tspan><tspan x="69.375%">R</tspan><tspan x="70%">E</tspan><tspan x="70.625%">A</tspan><tspan x="71.25%">D</tspan><tspan x="71.875%">Y</tspan><tspan x="74.375%">S</tspan><tspan x="75%">T</tspan><tspan x="75.625%">A</tspan><tspan x="76.25%">T</tspan><tspan x="76.875%">U</tspan><tspan x="77.5%">S</tspan><tspan x="80.625%">R</tspan><tspan x="81.25%">E</tspan><tspan x="81.875%">S</tspan><tspan x="82.5%">T</tspan><tspan x="83.125%">A</tspan><tspan x="83.75%">R</tspan><tspan x="84.375%">T</tspan><tspan x="85%">S</tspan><tspan x="87.5%">A</tspan><tspan x="88.125%">G</tspan><tspan x="88.75%">E</tspan> </tspan> <tspan y="6.818%"> <tspan x="0%" dy="1em">c</tspan><tspan x=".625%">h</tspan><tspan x="1.25%">a</tspan><tspan x="1.875%">o</tspan><tspan x="2.5%">s</tspan><tspan x="3.125%">:</tspan><tspan x="3.75%">~</tspan><tspan x="4.375%">$</tspan><tspan x="49.375%" class="c-2">│</tspan><tspan x="50%">h</tspan><tspan x="50.625%">e</tspan><tspan x="51.25%">l</tspan><tspan x="51.875%">l</tspan><tspan x="52.5%">o</tspan><tspan x="53.125%">-</tspan><tspan x="53.75%">d</tspan><tspan x="54.375%">e</tspan><tspan x="55%">p</tspan><tspan x="55.625%">l</tspan><tspan x="56.25%">o</tspan><tspan x="56.875%">y</tspan><tspan x="57.5%">-</tspan><tspan x="58.125%">d</tspan><tspan x="58.75%">d</tspan><tspan x="59.375%">5</tspan><tspan x="60%">9</tspan><tspan x="60.625%">b</tspan><tspan x="61.25%">8</tspan><tspan x="61.875%">9</tspan><tspan x="62.5%">5</tspan><tspan x="63.125%">6</tspan><tspan x="63.75%">-</tspan><tspan x="64.375%">h</tspan><tspan x="65%">x</tspan><tspan x="65.625%">c</tspan><tspan x="66.25%">j</tspan><tspan x="66.875%">v</tspan><tspan x="69.375%">1</tspan><tspan x="70%">/</tspan><tspan x="70.625%">1</tspan><tspan x="74.375%">R</tspan><tspan x="75%">u</tspan><tspan x="75.625%">n</tspan><tspan x="76.25%">n</tspan><tspan x="76.875%">i</tspan><tspan x="77.5%">n</tspan><tspan x="78.125%">g</tspan><tspan x="80.625%">0</tspan><tspan x="87.5%">1</tspan><tspan x="88.125%">9</tspan><tspan x="88.75%">m</tspan> </tspan> <tspan y="9.091%"> <tspan x="49.375%" class="c-2" dy="1em">│</tspan> </tspan> <tspan y="11.364%"> <tspan x="49.375%" class="c-2" dy="1em">│</tspan> </tspan> <tspan y="13.636%"> <tspan x="49.375%" class="c-2" dy="1em">│</tspan> </tspan> <tspan y="15.909%"> <tspan x="49.375%" class="c-2" dy="1em">│</tspan> </tspan> <tspan y="18.182%"> <tspan x="49.375%" class="c-2" dy="1em">│</tspan> </tspan> <tspan y="20.455%"> <tspan x="49.375%" class="c-2" dy="1em">│</tspan> </tspan> <tspan y="22.727%"> <tspan x="49.375%" class="c-2" dy="1em">│</tspan> </tspan> <tspan y="25%"> <tspan x="49.375%" class="c-2" dy="1em">│</tspan> </tspan> <tspan y="27.273%"> <tspan x="49.375%" class="c-2" dy="1em">│</tspan> </tspan> <tspan y="29.545%"> <tspan x="49.375%" class="c-2" dy="1em">│</tspan> </tspan> <tspan y="31.818%"> <tspan x="49.375%" class="c-2" dy="1em">│</tspan> </tspan> <tspan y="34.091%"> <tspan x="49.375%" class="c-2" dy="1em">│</tspan> </tspan> <tspan y="36.364%"> <tspan x="49.375%" class="c-2" dy="1em">│</tspan> </tspan> <tspan y="38.636%"> <tspan x="49.375%" class="c-2" dy="1em">│</tspan> </tspan> <tspan y="40.909%"> <tspan x="49.375%" class="c-2" dy="1em">│</tspan> </tspan> <tspan y="43.182%"> <tspan x="49.375%" class="c-2" dy="1em">│</tspan> </tspan> <tspan y="45.455%"> <tspan x="49.375%" class="c-2" dy="1em">│</tspan> </tspan> <tspan y="47.727%"> <tspan x="49.375%" class="c-2" dy="1em">├</tspan><tspan x="50%">─</tspan><tspan x="50.625%">─</tspan><tspan x="51.25%">─</tspan><tspan x="51.875%">─</tspan><tspan x="52.5%">─</tspan><tspan x="53.125%">─</tspan><tspan x="53.75%">─</tspan><tspan x="54.375%">─</tspan><tspan x="55%">─</tspan><tspan x="55.625%">─</tspan><tspan x="56.25%">─</tspan><tspan x="56.875%">─</tspan><tspan x="57.5%">─</tspan><tspan x="58.125%">─</tspan><tspan x="58.75%">─</tspan><tspan x="59.375%">─</tspan><tspan x="60%">─</tspan><tspan x="60.625%">─</tspan><tspan x="61.25%">─</tspan><tspan x="61.875%">─</tspan><tspan x="62.5%">─</tspan><tspan x="63.125%">─</tspan><tspan x="63.75%">─</tspan><tspan x="64.375%">─</tspan><tspan x="65%">─</tspan><tspan x="65.625%">─</tspan><tspan x="66.25%">─</tspan><tspan x="66.875%">─</tspan><tspan x="67.5%">─</tspan><tspan x="68.125%">─</tspan><tspan x="68.75%">─</tspan><tspan x="69.375%">─</tspan><tspan x="70%">─</tspan><tspan x="70.625%">─</tspan><tspan x="71.25%">─</tspan><tspan x="71.875%">─</tspan><tspan x="72.5%">─</tspan><tspan x="73.125%">─</tspan><tspan x="73.75%">─</tspan><tspan x="74.375%">─</tspan><tspan x="75%">─</tspan><tspan x="75.625%">─</tspan><tspan x="76.25%">─</tspan><tspan x="76.875%">─</tspan><tspan x="77.5%">─</tspan><tspan x="78.125%">─</tspan><tspan x="78.75%">─</tspan><tspan x="79.375%">─</tspan><tspan x="80%">─</tspan><tspan x="80.625%">─</tspan><tspan x="81.25%">─</tspan><tspan x="81.875%">─</tspan><tspan x="82.5%">─</tspan><tspan x="83.125%">─</tspan><tspan x="83.75%">─</tspan><tspan x="84.375%">─</tspan><tspan x="85%">─</tspan><tspan x="85.625%">─</tspan><tspan x="86.25%">─</tspan><tspan x="86.875%">─</tspan><tspan x="87.5%">─</tspan><tspan x="88.125%">─</tspan><tspan x="88.75%">─</tspan><tspan x="89.375%">─</tspan><tspan x="90%">─</tspan><tspan x="90.625%">─</tspan><tspan x="91.25%">─</tspan><tspan x="91.875%">─</tspan><tspan x="92.5%">─</tspan><tspan x="93.125%">─</tspan><tspan x="93.75%">─</tspan><tspan x="94.375%">─</tspan><tspan x="95%">─</tspan><tspan x="95.625%">─</tspan><tspan x="96.25%">─</tspan><tspan x="96.875%">─</tspan><tspan x="97.5%">─</tspan><tspan x="98.125%">─</tspan> </tspan> <tspan y="50%"> <tspan x="49.375%" class="c-2" dy="1em">│</tspan><tspan x="50%" class="br c-10">H</tspan><tspan x="50.625%" class="br c-10">e</tspan><tspan x="51.25%" class="br c-10">l</tspan><tspan x="51.875%" class="br c-10">l</tspan><tspan x="52.5%" class="br c-10">o</tspan><tspan x="53.75%" class="br c-10">W</tspan><tspan x="54.375%" class="br c-10">o</tspan><tspan x="55%" class="br c-10">r</tspan><tspan x="55.625%" class="br c-10">l</tspan><tspan x="56.25%" class="br c-10">d</tspan><tspan x="57.5%" class="br c-10">i</tspan><tspan x="58.125%" class="br c-10">s</tspan><tspan x="59.375%" class="br c-10">o</tspan><tspan x="60%" class="br c-10">n</tspan><tspan x="60.625%" class="br c-10">l</tspan><tspan x="61.25%" class="br c-10">i</tspan><tspan x="61.875%" class="br c-10">n</tspan><tspan x="62.5%" class="br c-10">e</tspan><tspan x="63.75%">H</tspan><tspan x="64.375%">T</tspan><tspan x="65%">T</tspan><tspan x="65.625%">P</tspan><tspan x="66.25%">/</tspan><tspan x="66.875%">2</tspan><tspan x="68.125%">2</tspan><tspan x="68.75%">0</tspan><tspan x="69.375%">0</tspan><tspan x="70.625%">O</tspan><tspan x="71.25%">K</tspan> </tspan> <tspan y="52.273%"> <tspan x="49.375%" class="c-2" dy="1em">│</tspan><tspan x="50%" class="br c-10">H</tspan><tspan x="50.625%" class="br c-10">e</tspan><tspan x="51.25%" class="br c-10">l</tspan><tspan x="51.875%" class="br c-10">l</tspan><tspan x="52.5%" class="br c-10">o</tspan><tspan x="53.75%" class="br c-10">W</tspan><tspan x="54.375%" class="br c-10">o</tspan><tspan x="55%" class="br c-10">r</tspan><tspan x="55.625%" class="br c-10">l</tspan><tspan x="56.25%" class="br c-10">d</tspan><tspan x="57.5%" class="br c-10">i</tspan><tspan x="58.125%" class="br c-10">s</tspan><tspan x="59.375%" class="br c-10">o</tspan><tspan x="60%" class="br c-10">n</tspan><tspan x="60.625%" class="br c-10">l</tspan><tspan x="61.25%" class="br c-10">i</tspan><tspan x="61.875%" class="br c-10">n</tspan><tspan x="62.5%" class="br c-10">e</tspan><tspan x="63.75%">H</tspan><tspan x="64.375%">T</tspan><tspan x="65%">T</tspan><tspan x="65.625%">P</tspan><tspan x="66.25%">/</tspan><tspan x="66.875%">2</tspan><tspan x="68.125%">2</tspan><tspan x="68.75%">0</tspan><tspan x="69.375%">0</tspan><tspan x="70.625%">O</tspan><tspan x="71.25%">K</tspan> </tspan> <tspan y="54.545%"> <tspan x="49.375%" class="c-2" dy="1em">│</tspan><tspan x="50%" class="br c-10">H</tspan><tspan x="50.625%" class="br c-10">e</tspan><tspan x="51.25%" class="br c-10">l</tspan><tspan x="51.875%" class="br c-10">l</tspan><tspan x="52.5%" class="br c-10">o</tspan><tspan x="53.75%" class="br c-10">W</tspan><tspan x="54.375%" class="br c-10">o</tspan><tspan x="55%" class="br c-10">r</tspan><tspan x="55.625%" class="br c-10">l</tspan><tspan x="56.25%" class="br c-10">d</tspan><tspan x="57.5%" class="br c-10">i</tspan><tspan x="58.125%" class="br c-10">s</tspan><tspan x="59.375%" class="br c-10">o</tspan><tspan x="60%" class="br c-10">n</tspan><tspan x="60.625%" class="br c-10">l</tspan><tspan x="61.25%" class="br c-10">i</tspan><tspan x="61.875%" class="br c-10">n</tspan><tspan x="62.5%" class="br c-10">e</tspan><tspan x="63.75%">H</tspan><tspan x="64.375%">T</tspan><tspan x="65%">T</tspan><tspan x="65.625%">P</tspan><tspan x="66.25%">/</tspan><tspan x="66.875%">2</tspan><tspan x="68.125%">2</tspan><tspan x="68.75%">0</tspan><tspan x="69.375%">0</tspan><tspan x="70.625%">O</tspan><tspan x="71.25%">K</tspan> </tspan> <tspan y="56.818%"> <tspan x="49.375%" class="c-2" dy="1em">│</tspan><tspan x="50%" class="br c-10">H</tspan><tspan x="50.625%" class="br c-10">e</tspan><tspan x="51.25%" class="br c-10">l</tspan><tspan x="51.875%" class="br c-10">l</tspan><tspan x="52.5%" class="br c-10">o</tspan><tspan x="53.75%" class="br c-10">W</tspan><tspan x="54.375%" class="br c-10">o</tspan><tspan x="55%" class="br c-10">r</tspan><tspan x="55.625%" class="br c-10">l</tspan><tspan x="56.25%" class="br c-10">d</tspan><tspan x="57.5%" class="br c-10">i</tspan><tspan x="58.125%" class="br c-10">s</tspan><tspan x="59.375%" class="br c-10">o</tspan><tspan x="60%" class="br c-10">n</tspan><tspan x="60.625%" class="br c-10">l</tspan><tspan x="61.25%" class="br c-10">i</tspan><tspan x="61.875%" class="br c-10">n</tspan><tspan x="62.5%" class="br c-10">e</tspan><tspan x="63.75%">H</tspan><tspan x="64.375%">T</tspan><tspan x="65%">T</tspan><tspan x="65.625%">P</tspan><tspan x="66.25%">/</tspan><tspan x="66.875%">2</tspan><tspan x="68.125%">2</tspan><tspan x="68.75%">0</tspan><tspan x="69.375%">0</tspan><tspan x="70.625%">O</tspan><tspan x="71.25%">K</tspan> </tspan> <tspan y="59.091%"> <tspan x="49.375%" class="c-2" dy="1em">│</tspan><tspan x="50%" class="br c-10">H</tspan><tspan x="50.625%" class="br c-10">e</tspan><tspan x="51.25%" class="br c-10">l</tspan><tspan x="51.875%" class="br c-10">l</tspan><tspan x="52.5%" class="br c-10">o</tspan><tspan x="53.75%" class="br c-10">W</tspan><tspan x="54.375%" class="br c-10">o</tspan><tspan x="55%" class="br c-10">r</tspan><tspan x="55.625%" class="br c-10">l</tspan><tspan x="56.25%" class="br c-10">d</tspan><tspan x="57.5%" class="br c-10">i</tspan><tspan x="58.125%" class="br c-10">s</tspan><tspan x="59.375%" class="br c-10">o</tspan><tspan x="60%" class="br c-10">n</tspan><tspan x="60.625%" class="br c-10">l</tspan><tspan x="61.25%" class="br c-10">i</tspan><tspan x="61.875%" class="br c-10">n</tspan><tspan x="62.5%" class="br c-10">e</tspan><tspan x="63.75%">H</tspan><tspan x="64.375%">T</tspan><tspan x="65%">T</tspan><tspan x="65.625%">P</tspan><tspan x="66.25%">/</tspan><tspan x="66.875%">2</tspan><tspan x="68.125%">2</tspan><tspan x="68.75%">0</tspan><tspan x="69.375%">0</tspan><tspan x="70.625%">O</tspan><tspan x="71.25%">K</tspan> </tspan> <tspan y="61.364%"> <tspan x="49.375%" class="c-2" dy="1em">│</tspan><tspan x="50%" class="br c-10">H</tspan><tspan x="50.625%" class="br c-10">e</tspan><tspan x="51.25%" class="br c-10">l</tspan><tspan x="51.875%" class="br c-10">l</tspan><tspan x="52.5%" class="br c-10">o</tspan><tspan x="53.75%" class="br c-10">W</tspan><tspan x="54.375%" class="br c-10">o</tspan><tspan x="55%" class="br c-10">r</tspan><tspan x="55.625%" class="br c-10">l</tspan><tspan x="56.25%" class="br c-10">d</tspan><tspan x="57.5%" class="br c-10">i</tspan><tspan x="58.125%" class="br c-10">s</tspan><tspan x="59.375%" class="br c-10">o</tspan><tspan x="60%" class="br c-10">n</tspan><tspan x="60.625%" class="br c-10">l</tspan><tspan x="61.25%" class="br c-10">i</tspan><tspan x="61.875%" class="br c-10">n</tspan><tspan x="62.5%" class="br c-10">e</tspan><tspan x="63.75%">H</tspan><tspan x="64.375%">T</tspan><tspan x="65%">T</tspan><tspan x="65.625%">P</tspan><tspan x="66.25%">/</tspan><tspan x="66.875%">2</tspan><tspan x="68.125%">2</tspan><tspan x="68.75%">0</tspan><tspan x="69.375%">0</tspan><tspan x="70.625%">O</tspan><tspan x="71.25%">K</tspan> </tspan> <tspan y="63.636%"> <tspan x="49.375%" class="c-2" dy="1em">│</tspan><tspan x="50%" class="br c-10">H</tspan><tspan x="50.625%" class="br c-10">e</tspan><tspan x="51.25%" class="br c-10">l</tspan><tspan x="51.875%" class="br c-10">l</tspan><tspan x="52.5%" class="br c-10">o</tspan><tspan x="53.75%" class="br c-10">W</tspan><tspan x="54.375%" class="br c-10">o</tspan><tspan x="55%" class="br c-10">r</tspan><tspan x="55.625%" class="br c-10">l</tspan><tspan x="56.25%" class="br c-10">d</tspan><tspan x="57.5%" class="br c-10">i</tspan><tspan x="58.125%" class="br c-10">s</tspan><tspan x="59.375%" class="br c-10">o</tspan><tspan x="60%" class="br c-10">n</tspan><tspan x="60.625%" class="br c-10">l</tspan><tspan x="61.25%" class="br c-10">i</tspan><tspan x="61.875%" class="br c-10">n</tspan><tspan x="62.5%" class="br c-10">e</tspan><tspan x="63.75%">H</tspan><tspan x="64.375%">T</tspan><tspan x="65%">T</tspan><tspan x="65.625%">P</tspan><tspan x="66.25%">/</tspan><tspan x="66.875%">2</tspan><tspan x="68.125%">2</tspan><tspan x="68.75%">0</tspan><tspan x="69.375%">0</tspan><tspan x="70.625%">O</tspan><tspan x="71.25%">K</tspan> </tspan> <tspan y="65.909%"> <tspan x="49.375%" class="c-2" dy="1em">│</tspan><tspan x="50%" class="br c-10">H</tspan><tspan x="50.625%" class="br c-10">e</tspan><tspan x="51.25%" class="br c-10">l</tspan><tspan x="51.875%" class="br c-10">l</tspan><tspan x="52.5%" class="br c-10">o</tspan><tspan x="53.75%" class="br c-10">W</tspan><tspan x="54.375%" class="br c-10">o</tspan><tspan x="55%" class="br c-10">r</tspan><tspan x="55.625%" class="br c-10">l</tspan><tspan x="56.25%" class="br c-10">d</tspan><tspan x="57.5%" class="br c-10">i</tspan><tspan x="58.125%" class="br c-10">s</tspan><tspan x="59.375%" class="br c-10">o</tspan><tspan x="60%" class="br c-10">n</tspan><tspan x="60.625%" class="br c-10">l</tspan><tspan x="61.25%" class="br c-10">i</tspan><tspan x="61.875%" class="br c-10">n</tspan><tspan x="62.5%" class="br c-10">e</tspan><tspan x="63.75%">H</tspan><tspan x="64.375%">T</tspan><tspan x="65%">T</tspan><tspan x="65.625%">P</tspan><tspan x="66.25%">/</tspan><tspan x="66.875%">2</tspan><tspan x="68.125%">2</tspan><tspan x="68.75%">0</tspan><tspan x="69.375%">0</tspan><tspan x="70.625%">O</tspan><tspan x="71.25%">K</tspan> </tspan> <tspan y="68.182%"> <tspan x="49.375%" class="c-2" dy="1em">│</tspan><tspan x="50%" class="br c-10">H</tspan><tspan x="50.625%" class="br c-10">e</tspan><tspan x="51.25%" class="br c-10">l</tspan><tspan x="51.875%" class="br c-10">l</tspan><tspan x="52.5%" class="br c-10">o</tspan><tspan x="53.75%" class="br c-10">W</tspan><tspan x="54.375%" class="br c-10">o</tspan><tspan x="55%" class="br c-10">r</tspan><tspan x="55.625%" class="br c-10">l</tspan><tspan x="56.25%" class="br c-10">d</tspan><tspan x="57.5%" class="br c-10">i</tspan><tspan x="58.125%" class="br c-10">s</tspan><tspan x="59.375%" class="br c-10">o</tspan><tspan x="60%" class="br c-10">n</tspan><tspan x="60.625%" class="br c-10">l</tspan><tspan x="61.25%" class="br c-10">i</tspan><tspan x="61.875%" class="br c-10">n</tspan><tspan x="62.5%" class="br c-10">e</tspan><tspan x="63.75%">H</tspan><tspan x="64.375%">T</tspan><tspan x="65%">T</tspan><tspan x="65.625%">P</tspan><tspan x="66.25%">/</tspan><tspan x="66.875%">2</tspan><tspan x="68.125%">2</tspan><tspan x="68.75%">0</tspan><tspan x="69.375%">0</tspan><tspan x="70.625%">O</tspan><tspan x="71.25%">K</tspan> </tspan> <tspan y="70.455%"> <tspan x="49.375%" class="c-2" dy="1em">│</tspan><tspan x="50%" class="br c-10">H</tspan><tspan x="50.625%" class="br c-10">e</tspan><tspan x="51.25%" class="br c-10">l</tspan><tspan x="51.875%" class="br c-10">l</tspan><tspan x="52.5%" class="br c-10">o</tspan><tspan x="53.75%" class="br c-10">W</tspan><tspan x="54.375%" class="br c-10">o</tspan><tspan x="55%" class="br c-10">r</tspan><tspan x="55.625%" class="br c-10">l</tspan><tspan x="56.25%" class="br c-10">d</tspan><tspan x="57.5%" class="br c-10">i</tspan><tspan x="58.125%" class="br c-10">s</tspan><tspan x="59.375%" class="br c-10">o</tspan><tspan x="60%" class="br c-10">n</tspan><tspan x="60.625%" class="br c-10">l</tspan><tspan x="61.25%" class="br c-10">i</tspan><tspan x="61.875%" class="br c-10">n</tspan><tspan x="62.5%" class="br c-10">e</tspan><tspan x="63.75%">H</tspan><tspan x="64.375%">T</tspan><tspan x="65%">T</tspan><tspan x="65.625%">P</tspan><tspan x="66.25%">/</tspan><tspan x="66.875%">2</tspan><tspan x="68.125%">2</tspan><tspan x="68.75%">0</tspan><tspan x="69.375%">0</tspan><tspan x="70.625%">O</tspan><tspan x="71.25%">K</tspan> </tspan> <tspan y="72.727%"> <tspan x="49.375%" class="c-2" dy="1em">│</tspan><tspan x="50%" class="br c-10">H</tspan><tspan x="50.625%" class="br c-10">e</tspan><tspan x="51.25%" class="br c-10">l</tspan><tspan x="51.875%" class="br c-10">l</tspan><tspan x="52.5%" class="br c-10">o</tspan><tspan x="53.75%" class="br c-10">W</tspan><tspan x="54.375%" class="br c-10">o</tspan><tspan x="55%" class="br c-10">r</tspan><tspan x="55.625%" class="br c-10">l</tspan><tspan x="56.25%" class="br c-10">d</tspan><tspan x="57.5%" class="br c-10">i</tspan><tspan x="58.125%" class="br c-10">s</tspan><tspan x="59.375%" class="br c-10">o</tspan><tspan x="60%" class="br c-10">n</tspan><tspan x="60.625%" class="br c-10">l</tspan><tspan x="61.25%" class="br c-10">i</tspan><tspan x="61.875%" class="br c-10">n</tspan><tspan x="62.5%" class="br c-10">e</tspan><tspan x="63.75%">H</tspan><tspan x="64.375%">T</tspan><tspan x="65%">T</tspan><tspan x="65.625%">P</tspan><tspan x="66.25%">/</tspan><tspan x="66.875%">2</tspan><tspan x="68.125%">2</tspan><tspan x="68.75%">0</tspan><tspan x="69.375%">0</tspan><tspan x="70.625%">O</tspan><tspan x="71.25%">K</tspan> </tspan> <tspan y="75%"> <tspan x="49.375%" class="c-2" dy="1em">│</tspan><tspan x="50%" class="br c-10">H</tspan><tspan x="50.625%" class="br c-10">e</tspan><tspan x="51.25%" class="br c-10">l</tspan><tspan x="51.875%" class="br c-10">l</tspan><tspan x="52.5%" class="br c-10">o</tspan><tspan x="53.75%" class="br c-10">W</tspan><tspan x="54.375%" class="br c-10">o</tspan><tspan x="55%" class="br c-10">r</tspan><tspan x="55.625%" class="br c-10">l</tspan><tspan x="56.25%" class="br c-10">d</tspan><tspan x="57.5%" class="br c-10">i</tspan><tspan x="58.125%" class="br c-10">s</tspan><tspan x="59.375%" class="br c-10">o</tspan><tspan x="60%" class="br c-10">n</tspan><tspan x="60.625%" class="br c-10">l</tspan><tspan x="61.25%" class="br c-10">i</tspan><tspan x="61.875%" class="br c-10">n</tspan><tspan x="62.5%" class="br c-10">e</tspan><tspan x="63.75%">H</tspan><tspan x="64.375%">T</tspan><tspan x="65%">T</tspan><tspan x="65.625%">P</tspan><tspan x="66.25%">/</tspan><tspan x="66.875%">2</tspan><tspan x="68.125%">2</tspan><tspan x="68.75%">0</tspan><tspan x="69.375%">0</tspan><tspan x="70.625%">O</tspan><tspan x="71.25%">K</tspan> </tspan> <tspan y="77.273%"> <tspan x="49.375%" class="c-2" dy="1em">│</tspan><tspan x="50%" class="br c-10">H</tspan><tspan x="50.625%" class="br c-10">e</tspan><tspan x="51.25%" class="br c-10">l</tspan><tspan x="51.875%" class="br c-10">l</tspan><tspan x="52.5%" class="br c-10">o</tspan><tspan x="53.75%" class="br c-10">W</tspan><tspan x="54.375%" class="br c-10">o</tspan><tspan x="55%" class="br c-10">r</tspan><tspan x="55.625%" class="br c-10">l</tspan><tspan x="56.25%" class="br c-10">d</tspan><tspan x="57.5%" class="br c-10">i</tspan><tspan x="58.125%" class="br c-10">s</tspan><tspan x="59.375%" class="br c-10">o</tspan><tspan x="60%" class="br c-10">n</tspan><tspan x="60.625%" class="br c-10">l</tspan><tspan x="61.25%" class="br c-10">i</tspan><tspan x="61.875%" class="br c-10">n</tspan><tspan x="62.5%" class="br c-10">e</tspan><tspan x="63.75%">H</tspan><tspan x="64.375%">T</tspan><tspan x="65%">T</tspan><tspan x="65.625%">P</tspan><tspan x="66.25%">/</tspan><tspan x="66.875%">2</tspan><tspan x="68.125%">2</tspan><tspan x="68.75%">0</tspan><tspan x="69.375%">0</tspan><tspan x="70.625%">O</tspan><tspan x="71.25%">K</tspan> </tspan> <tspan y="79.545%"> <tspan x="49.375%" class="c-2" dy="1em">│</tspan><tspan x="50%" class="br c-10">H</tspan><tspan x="50.625%" class="br c-10">e</tspan><tspan x="51.25%" class="br c-10">l</tspan><tspan x="51.875%" class="br c-10">l</tspan><tspan x="52.5%" class="br c-10">o</tspan><tspan x="53.75%" class="br c-10">W</tspan><tspan x="54.375%" class="br c-10">o</tspan><tspan x="55%" class="br c-10">r</tspan><tspan x="55.625%" class="br c-10">l</tspan><tspan x="56.25%" class="br c-10">d</tspan><tspan x="57.5%" class="br c-10">i</tspan><tspan x="58.125%" class="br c-10">s</tspan><tspan x="59.375%" class="br c-10">o</tspan><tspan x="60%" class="br c-10">n</tspan><tspan x="60.625%" class="br c-10">l</tspan><tspan x="61.25%" class="br c-10">i</tspan><tspan x="61.875%" class="br c-10">n</tspan><tspan x="62.5%" class="br c-10">e</tspan><tspan x="63.75%">H</tspan><tspan x="64.375%">T</tspan><tspan x="65%">T</tspan><tspan x="65.625%">P</tspan><tspan x="66.25%">/</tspan><tspan x="66.875%">2</tspan><tspan x="68.125%">2</tspan><tspan x="68.75%">0</tspan><tspan x="69.375%">0</tspan><tspan x="70.625%">O</tspan><tspan x="71.25%">K</tspan> </tspan> <tspan y="81.818%"> <tspan x="49.375%" class="c-2" dy="1em">│</tspan><tspan x="50%" class="br c-10">H</tspan><tspan x="50.625%" class="br c-10">e</tspan><tspan x="51.25%" class="br c-10">l</tspan><tspan x="51.875%" class="br c-10">l</tspan><tspan x="52.5%" class="br c-10">o</tspan><tspan x="53.75%" class="br c-10">W</tspan><tspan x="54.375%" class="br c-10">o</tspan><tspan x="55%" class="br c-10">r</tspan><tspan x="55.625%" class="br c-10">l</tspan><tspan x="56.25%" class="br c-10">d</tspan><tspan x="57.5%" class="br c-10">i</tspan><tspan x="58.125%" class="br c-10">s</tspan><tspan x="59.375%" class="br c-10">o</tspan><tspan x="60%" class="br c-10">n</tspan><tspan x="60.625%" class="br c-10">l</tspan><tspan x="61.25%" class="br c-10">i</tspan><tspan x="61.875%" class="br c-10">n</tspan><tspan x="62.5%" class="br c-10">e</tspan><tspan x="63.75%">H</tspan><tspan x="64.375%">T</tspan><tspan x="65%">T</tspan><tspan x="65.625%">P</tspan><tspan x="66.25%">/</tspan><tspan x="66.875%">2</tspan><tspan x="68.125%">2</tspan><tspan x="68.75%">0</tspan><tspan x="69.375%">0</tspan><tspan x="70.625%">O</tspan><tspan x="71.25%">K</tspan> </tspan> <tspan y="84.091%"> <tspan x="49.375%" class="c-2" dy="1em">│</tspan><tspan x="50%" class="br c-10">H</tspan><tspan x="50.625%" class="br c-10">e</tspan><tspan x="51.25%" class="br c-10">l</tspan><tspan x="51.875%" class="br c-10">l</tspan><tspan x="52.5%" class="br c-10">o</tspan><tspan x="53.75%" class="br c-10">W</tspan><tspan x="54.375%" class="br c-10">o</tspan><tspan x="55%" class="br c-10">r</tspan><tspan x="55.625%" class="br c-10">l</tspan><tspan x="56.25%" class="br c-10">d</tspan><tspan x="57.5%" class="br c-10">i</tspan><tspan x="58.125%" class="br c-10">s</tspan><tspan x="59.375%" class="br c-10">o</tspan><tspan x="60%" class="br c-10">n</tspan><tspan x="60.625%" class="br c-10">l</tspan><tspan x="61.25%" class="br c-10">i</tspan><tspan x="61.875%" class="br c-10">n</tspan><tspan x="62.5%" class="br c-10">e</tspan><tspan x="63.75%">H</tspan><tspan x="64.375%">T</tspan><tspan x="65%">T</tspan><tspan x="65.625%">P</tspan><tspan x="66.25%">/</tspan><tspan x="66.875%">2</tspan><tspan x="68.125%">2</tspan><tspan x="68.75%">0</tspan><tspan x="69.375%">0</tspan><tspan x="70.625%">O</tspan><tspan x="71.25%">K</tspan> </tspan> <tspan y="86.364%"> <tspan x="49.375%" class="c-2" dy="1em">│</tspan><tspan x="50%" class="br c-10">H</tspan><tspan x="50.625%" class="br c-10">e</tspan><tspan x="51.25%" class="br c-10">l</tspan><tspan x="51.875%" class="br c-10">l</tspan><tspan x="52.5%" class="br c-10">o</tspan><tspan x="53.75%" class="br c-10">W</tspan><tspan x="54.375%" class="br c-10">o</tspan><tspan x="55%" class="br c-10">r</tspan><tspan x="55.625%" class="br c-10">l</tspan><tspan x="56.25%" class="br c-10">d</tspan><tspan x="57.5%" class="br c-10">i</tspan><tspan x="58.125%" class="br c-10">s</tspan><tspan x="59.375%" class="br c-10">o</tspan><tspan x="60%" class="br c-10">n</tspan><tspan x="60.625%" class="br c-10">l</tspan><tspan x="61.25%" class="br c-10">i</tspan><tspan x="61.875%" class="br c-10">n</tspan><tspan x="62.5%" class="br c-10">e</tspan><tspan x="63.75%">H</tspan><tspan x="64.375%">T</tspan><tspan x="65%">T</tspan><tspan x="65.625%">P</tspan><tspan x="66.25%">/</tspan><tspan x="66.875%">2</tspan><tspan x="68.125%">2</tspan><tspan x="68.75%">0</tspan><tspan x="69.375%">0</tspan><tspan x="70.625%">O</tspan><tspan x="71.25%">K</tspan> </tspan> <tspan y="88.636%"> <tspan x="49.375%" class="c-2" dy="1em">│</tspan><tspan x="50%" class="br c-10">H</tspan><tspan x="50.625%" class="br c-10">e</tspan><tspan x="51.25%" class="br c-10">l</tspan><tspan x="51.875%" class="br c-10">l</tspan><tspan x="52.5%" class="br c-10">o</tspan><tspan x="53.75%" class="br c-10">W</tspan><tspan x="54.375%" class="br c-10">o</tspan><tspan x="55%" class="br c-10">r</tspan><tspan x="55.625%" class="br c-10">l</tspan><tspan x="56.25%" class="br c-10">d</tspan><tspan x="57.5%" class="br c-10">i</tspan><tspan x="58.125%" class="br c-10">s</tspan><tspan x="59.375%" class="br c-10">o</tspan><tspan x="60%" class="br c-10">n</tspan><tspan x="60.625%" class="br c-10">l</tspan><tspan x="61.25%" class="br c-10">i</tspan><tspan x="61.875%" class="br c-10">n</tspan><tspan x="62.5%" class="br c-10">e</tspan><tspan x="63.75%">H</tspan><tspan x="64.375%">T</tspan><tspan x="65%">T</tspan><tspan x="65.625%">P</tspan><tspan x="66.25%">/</tspan><tspan x="66.875%">2</tspan><tspan x="68.125%">2</tspan><tspan x="68.75%">0</tspan><tspan x="69.375%">0</tspan><tspan x="70.625%">O</tspan><tspan x="71.25%">K</tspan> </tspan> <tspan y="90.909%"> <tspan x="49.375%" class="c-2" dy="1em">│</tspan><tspan x="50%" class="br c-10">H</tspan><tspan x="50.625%" class="br c-10">e</tspan><tspan x="51.25%" class="br c-10">l</tspan><tspan x="51.875%" class="br c-10">l</tspan><tspan x="52.5%" class="br c-10">o</tspan><tspan x="53.75%" class="br c-10">W</tspan><tspan x="54.375%" class="br c-10">o</tspan><tspan x="55%" class="br c-10">r</tspan><tspan x="55.625%" class="br c-10">l</tspan><tspan x="56.25%" class="br c-10">d</tspan><tspan x="57.5%" class="br c-10">i</tspan><tspan x="58.125%" class="br c-10">s</tspan><tspan x="59.375%" class="br c-10">o</tspan><tspan x="60%" class="br c-10">n</tspan><tspan x="60.625%" class="br c-10">l</tspan><tspan x="61.25%" class="br c-10">i</tspan><tspan x="61.875%" class="br c-10">n</tspan><tspan x="62.5%" class="br c-10">e</tspan><tspan x="63.75%">H</tspan><tspan x="64.375%">T</tspan><tspan x="65%">T</tspan><tspan x="65.625%">P</tspan><tspan x="66.25%">/</tspan><tspan x="66.875%">2</tspan><tspan x="68.125%">2</tspan><tspan x="68.75%">0</tspan><tspan x="69.375%">0</tspan><tspan x="70.625%">O</tspan><tspan x="71.25%">K</tspan> </tspan> <tspan y="93.182%"> <tspan x="49.375%" class="c-2" dy="1em">│</tspan> </tspan> <tspan y="95.455%"> <tspan x="0%" class="c-0" dy="1em">[</tspan><tspan x=".625%" class="c-0">d</tspan><tspan x="1.25%" class="c-0">e</tspan><tspan x="1.875%" class="c-0">m</tspan><tspan x="2.5%" class="c-0">o</tspan><tspan x="3.125%" class="c-0">]</tspan><tspan x="4.375%" class="c-0">0</tspan><tspan x="5%" class="c-0">:</tspan><tspan x="5.625%" class="c-0">s</tspan><tspan x="6.25%" class="c-0">s</tspan><tspan x="6.875%" class="c-0">h</tspan><tspan x="7.5%" class="c-0">*</tspan><tspan x="75.625%" class="c-0">&quot;</tspan><tspan x="76.25%" class="c-0">r</tspan><tspan x="76.875%" class="c-0">a</tspan><tspan x="77.5%" class="c-0">h</tspan><tspan x="78.125%" class="c-0">u</tspan><tspan x="78.75%" class="c-0">l</tspan><tspan x="79.375%" class="c-0">-</tspan><tspan x="80%" class="c-0">T</tspan><tspan x="80.625%" class="c-0">h</tspan><tspan x="81.25%" class="c-0">i</tspan><tspan x="81.875%" class="c-0">n</tspan><tspan x="82.5%" class="c-0">k</tspan><tspan x="83.125%" class="c-0">P</tspan><tspan x="83.75%" class="c-0">a</tspan><tspan x="84.375%" class="c-0">d</tspan><tspan x="85%" class="c-0">-</tspan><tspan x="85.625%" class="c-0">E</tspan><tspan x="86.25%" class="c-0">4</tspan><tspan x="86.875%" class="c-0">9</tspan><tspan x="87.5%" class="c-0">0</tspan><tspan x="88.125%" class="c-0">&quot;</tspan><tspan x="89.375%" class="c-0">0</tspan><tspan x="90%" class="c-0">1</tspan><tspan x="90.625%" class="c-0">:</tspan><tspan x="91.25%" class="c-0">0</tspan><tspan x="91.875%" class="c-0">2</tspan><tspan x="93.125%" class="c-0">0</tspan><tspan x="93.75%" class="c-0">5</tspan><tspan x="94.375%" class="c-0">-</tspan><tspan x="95%" class="c-0">O</tspan><tspan x="95.625%" class="c-0">c</tspan><tspan x="96.25%" class="c-0">t</tspan><tspan x="96.875%" class="c-0">-</tspan><tspan x="97.5%" class="c-0">1</tspan><tspan x="98.125%" class="c-0">9</tspan></tspan></text><g transform="translate(-50 -50)"><svg width="100" height="100" x="50%" y="50%"><svg xmlns="http://www.w3.org/2000/svg" version="1.1" viewBox="0 0 866.025 866.025"><defs><mask id="small-triangle-mask"><rect width="100%" height="100%" fill="#fff"/><polygon fill="#000" points="508.013 433.013 208.013 259.808 208.013 606.218"/></mask></defs><polygon fill="#fff" points="808.013 433.013 58.013 0 58.013 866.025" mask="url(#small-triangle-mask)"/><polyline stroke="#fff" stroke-width="90" points="481.218 333.013 134.808 533.013"/></svg></svg></g></svg></svg>